<?xml version="1.0" standalone="no"?>
<!DOCTYPE svg PUBLIC "-//W3C//DTD SVG 20010904//EN"
 "http://www.w3.org/TR/2001/REC-SVG-20010904/DTD/svg10.dtd">
<svg version="1.0" xmlns="http://www.w3.org/2000/svg"
 width="500.000000pt" height="500.000000pt" viewBox="0 0 500.000000 500.000000"
 preserveAspectRatio="xMidYMid meet">
<metadata>
Created by potrace 1.15, written by Peter Selinger 2001-2017
</metadata>
<g transform="translate(0.000000,500.000000) scale(0.100000,-0.100000)"
fill="#000000" stroke="none">
<path d="M3870 3893 c-695 -73 -1559 -323 -2431 -703 -200 -88 -634 -301 -824
-405 -242 -133 -615 -359 -615 -374 0 -9 6 -11 17 -5 10 4 95 33 188 65 374
127 854 228 1335 281 67 7 242 13 420 13 274 0 318 -3 435 -23 156 -28 321
-81 407 -131 90 -52 182 -146 218 -223 82 -176 56 -384 -85 -673 -60 -125
-213 -366 -309 -489 -43 -56 -54 -76 -40 -76 12 0 550 366 751 512 909 657
1452 1190 1624 1596 30 69 33 89 37 195 4 116 4 119 -27 182 -48 97 -142 166
-291 214 -132 43 -219 51 -505 49 -148 0 -286 -3 -305 -5z"/>
</g>
</svg>
